<?xml version="1.0" encoding="utf-8"?>
<!-- Generator: Adobe Illustrator 19.2.1, SVG Export Plug-In . SVG Version: 6.00 Build 0)  -->
<svg version="1.1" id="layer" xmlns="http://www.w3.org/2000/svg" xmlns:xlink="http://www.w3.org/1999/xlink" x="0px" y="0px"
	 viewBox="0 0 652 652" style="enable-background:new 0 0 652 652;" xml:space="preserve">
<path d="M224,303.5v46h-11.7v-46h-15.4v-11.1h42.4v11.1H224z"/>
<path d="M286.4,320.4c-1.5,1.9-3.2,3.6-5.1,5.1c-0.7,0.5-1.5,1-2.3,1.3l12.4,22.7h-12.9l-11.4-21.8h-9.1v21.8h-11.6v-57.1H274
	c2.5,0,5,0.8,7.1,2.2c1.9,1.6,3.7,3.3,5.3,5.2c1.2,1.9,1.8,4.1,1.8,6.3v8.2C288.2,316.4,287.6,318.5,286.4,320.4z M276.6,305.8
	c-0.6-0.9-1.5-1.7-2.5-2.3h-16.3v13.1h16.3c1-0.6,1.8-1.3,2.5-2.3L276.6,305.8z"/>
<path d="M298.3,349.5v-57.1h37.5v11.1h-25.9v11.7h25v11.1h-25v12h25.9v11.1L298.3,349.5z"/>
<path d="M373.6,324.7v24.8h-11.7v-24.8l-19.1-32.4h13.1l11.9,20.1l12.1-20.1H393L373.6,324.7z"/>
<path d="M426.4,349.5l-3.8-11h-19.9c-1.2,3.5-2.7,7.4-3.9,11h-12.4l19.8-57.1h12.9l19.7,57.1H426.4z M412.6,309
	c-2.1,6.1-4.3,12.3-6.4,18.4h12.9L412.6,309z"/>
<path d="M485,320.4c-1.5,1.9-3.2,3.6-5.1,5.1c-0.7,0.5-1.5,1-2.3,1.3c4.7,8.6,12.4,22.7,12.4,22.7h-13l-11.3-21.8h-9.1v21.8h-11.6
	v-57.1h27.7c2.5,0,5,0.8,7.1,2.2c1.9,1.6,3.6,3.3,5.2,5.2c1.2,1.9,1.8,4.1,1.8,6.3v8.2C486.9,316.4,486.2,318.5,485,320.4z
	 M475.2,305.8c-0.6-0.9-1.5-1.7-2.5-2.3h-16.2v13.1h16.2c1-0.6,1.8-1.3,2.5-2.3V305.8z"/>
<path d="M529,309.1c-1-2.5-2.8-4.6-5-6.1h-11.9c-1.4,1.1-2.7,2.4-3.7,3.8v28.4c0.9,1.4,2.2,2.6,3.7,3.5h12.1
	c2.1-1.5,3.7-3.4,4.9-5.7l10.9,2.7c-0.8,2.2-1.9,4.2-3.3,6.1c-2.3,3.3-6.8,8.2-12.6,8.2h-12.5c-2.2-0.1-4.4-0.7-6.3-1.8
	c-2.6-2-4.9-4.3-7-6.9c-1.1-1.8-1.6-3.8-1.6-5.9v-28.9c-0.1-2.1,0.5-4.2,1.6-5.9c2-2.6,4.4-4.9,7-6.9c1.9-1.1,4-1.7,6.2-1.8h12.5
	c5.8,0,10.2,4.9,12.5,8c1.4,1.9,2.5,3.9,3.3,6.1L529,309.1z"/>
<path d="M577.4,349.5v-23h-19v23h-11.7v-57.1h11.6v22.9h19v-22.9H589v57.1L577.4,349.5z"/>
<path d="M206.2,352.2l3.6,6.2c6.1,8.3,12.7,24.5,2.5,39.2c0.8-1.2,4.9-8.4-0.3-22c0,0,2.6,27.4-29.4,19.3
	c-18.9-4.8-36.4-14.1-51-27.1l0.8-1.1l11.7,8.5c31.4,22.7,52.2,18.4,52.2,18.4c-27.3,0.2-52.2-20.2-52.2-20.2
	c-2.1-2.9-3.1-6.6-2.9-10.2l-3-4.9c0,0,9.4-14.5,12.9-22.1c0,0,28,8.3,33.3,28c0,0,6.2,21.2-28.2,6.3c0,0,63,32.9,48-4
	c0,0-12.7-25.7-50.1-37.9l0.3-0.8c7.3,2,14.2,5.1,20.6,9.2c40.5,25.5,32.5,42.7,32.5,42.7l0.6-0.4c6.1-20.8-32.9-43.1-32.9-43.1
	l-13.1-13c5.3,1.6,10.4,3.6,15.5,6l3.3,1.3c-9.4-6.2-22.2-9.8-24.2-10.3c2.3-9.9,3.7-20,4-30.1c1.6-42.4-15.7-61.8-37.9-62
	c-2,0-15.9-0.3-25.2,15.1l1.6-1.2c3.9-3.9,14-11.2,23.3-10.3l3.8,2.1c0,0-9.3-2.3-15,4.3c0,0,8.4-7.8,20.8-1.4l0.8,1
	c-1.6-0.9-3.2-1.6-5-2.1c-0.9-0.2-7.3-1.8-11.9,0.7l6.1,2.1c0.4,0,28,1.6,25.6,54.2c-0.7,14.3-4.8,39.8-20.3,59.4
	c-14.6,18.4-56.7,58.5-80.6,40.5c0,0-12-8.6,1.4-31.4c0,0-13.5,14.7-8.7,35.3c0,0-16-13.4,6.4-44.2c16.1-20.4,41.9-29.4,41.9-29.4
	l2.3,0.1l-8.2,10.8c-17.7,6.1-31.6,27.4-31.6,27.4c-18.1,34.3,10.3,32.5,10.3,32.5c-5.6-2.3-5-8.7-5-8.7c7.4,4,17.1,0,17.1,0
	c18-6.3,38.8-30.2,38.8-30.2l-1.4,0.2l-5,4.9l-3.7,0.7c-17.6,16.7-43.5,23.5-36.6,4c6.5-18.3,29.3-27.2,32.1-28.2
	c3.1,6.3,6.6,12.4,10.4,18.3l8.1-10.1l0,0l0.1-0.1l0,0l7.2-9.6c-0.8-1.1-1.5-2.2-2.1-3.4h3.5l3.3-6l-0.8,6l-4,6.8l-0.3,2.4l5.5-8.3
	c3.9-7.5,8.6-20.4,9-39.3c0,0,3-32.5-14.8-45.4l0,0c0,0,7.4-3.8,14.9,7.2c2.3,3.7,4.1,7.6,5.5,11.7c0.9,2.5,1.6,5,2.1,7.5
	c-6.4-40.3-27.4-28.5-27.4-28.5c-3.6,1.6-19.5,11.3-17.6,48.2c1.6,17.8,6.9,35,15.7,50.4c-5.2-5.5-10-16-10-16l1,7.7l-0.7,2v2.2
	l-0.6,4.7l-9.6-15l-1.4-4.4l-1-5.3l-0.6,0.1c-42.6,13.7-62.5,50.9-64.1,54.1l-0.1,0.2C14.6,403,28.7,416.3,55,413.7
	c17.6-1.8,36.6-4.7,67.6-36.8l0.2-0.2c1.6,1.6,35,34.6,70.9,36.9C225.7,415.7,236.8,388.1,206.2,352.2z M115,316.1
	c-1.9-7.7-2.9-15.7-3-23.6c-0.6-29.4,10.8-28.2,10.8-28.2s10.8-0.8,11.1,28.6c-0.3,7.8-1.4,15.6-3.3,23.2c-2.1-0.1-6.4-0.3-8.2-0.3
	S117.2,316.1,115,316.1z"/>
<path d="M85.3,282.4c0-10.7,2.4-21.2,7-30.8c-0.3,0.9-1.4,7.6-1.4,7.6l1.2,4.4c-3.4,6.8-4.4,26.8-1.6,37.9l-0.7,4.5l0.7,6.8
	C87.1,303.1,85.3,292.8,85.3,282.4z"/>
<polygon points="165.7,264.2 166.7,270.6 614.8,270.6 616.4,270.6 616.4,272.2 616.4,369.7 616.4,371.4 614.8,371.4 227.1,371.4 
	229.4,377.8 622.8,377.8 622.8,264.1 "/>
<polygon points="79.3,264.1 38.6,264.1 38.6,345.7 39.7,345.7 45.1,340.7 45.1,270.6 78.4,270.6 "/>
</svg>
